<svg xmlns="http://www.w3.org/2000/svg" viewBox="0 0 64 64"><g id="Layer_60" data-name="Layer 60"><path d="M12,27a1.5,1.5,0,0,0,1.5-1.5v-12h12a1.5,1.5,0,0,0,0-3H12a1.51,1.51,0,0,0-1.5,1.5V25.45A1.5,1.5,0,0,0,12,27Z"/><path d="M38.55,13.48h12v12a1.5,1.5,0,0,0,3,0V12a1.51,1.51,0,0,0-1.5-1.5H38.55A1.5,1.5,0,0,0,38.55,13.48Z"/><path d="M52,37.05a1.5,1.5,0,0,0-1.5,1.5v12h-12a1.5,1.5,0,0,0,0,3H52a1.51,1.51,0,0,0,1.5-1.5V38.55A1.5,1.5,0,0,0,52,37.05Z"/><path d="M25.45,50.52h-12v-12a1.5,1.5,0,0,0-3,0V52a1.51,1.51,0,0,0,1.5,1.5H25.45A1.5,1.5,0,0,0,25.45,50.52Z"/><path d="M54.24,30.5H9.76a1.5,1.5,0,0,0,0,3H54.24A1.5,1.5,0,0,0,54.24,30.5Z"/></g></svg>