<?xml version="1.0" encoding="UTF-8" standalone="no"?> <svg width="64" height="64" viewBox="0 0 64 64" fill="none" xmlns="http://www.w3.org/2000/svg">
<path d="M61.1802 35.07C58.9159 32.3033 56.3799 29.7706 53.6102 27.51L57.8102 23.31C58.0751 23.0256 58.2194 22.6496 58.2125 22.261C58.2057 21.8724 58.0482 21.5016 57.7734 21.2268C57.4986 20.9519 57.1278 20.7945 56.7392 20.7876C56.3506 20.7808 55.9745 20.925 55.6902 21.19L51.2202 25.65C46.4702 22.17 40.3302 19 33.5002 18.55V12C33.5002 11.6022 33.3421 11.2206 33.0608 10.9393C32.7795 10.658 32.398 10.5 32.0002 10.5C31.6023 10.5 31.2208 10.658 30.9395 10.9393C30.6582 11.2206 30.5002 11.6022 30.5002 12V18.55C23.6702 18.97 17.5002 22.17 12.7802 25.65L8.31017 21.19C8.17284 21.0426 8.00724 20.9244 7.82324 20.8424C7.63925 20.7605 7.44062 20.7164 7.23921 20.7128C7.03781 20.7093 6.83775 20.7463 6.65097 20.8218C6.4642 20.8972 6.29453 21.0095 6.15209 21.1519C6.00965 21.2944 5.89736 21.464 5.82192 21.6508C5.74648 21.8376 5.70943 22.0376 5.71298 22.239C5.71654 22.4404 5.76062 22.6391 5.84261 22.8231C5.92459 23.0071 6.04279 23.1727 6.19017 23.31L10.3902 27.51C7.62044 29.7706 5.08441 32.3033 2.82017 35.07C2.6109 35.3348 2.49707 35.6625 2.49707 36C2.49707 36.3375 2.6109 36.6652 2.82017 36.93C3.35017 37.6 16.0002 53.5 32.0002 53.5C48.0002 53.5 60.6502 37.6 61.1802 36.93C61.3894 36.6652 61.5033 36.3375 61.5033 36C61.5033 35.6625 61.3894 35.3348 61.1802 35.07V35.07ZM32.0002 50.5C19.5702 50.5 8.87017 39.33 6.00017 36C8.91017 32.67 19.6102 21.5 32.0002 21.5C44.3902 21.5 55.1302 32.67 58.0002 36C55.1302 39.33 44.4302 50.5 32.0002 50.5Z" fill="black"/>
<path d="M32 23.5C29.5277 23.5 27.111 24.2331 25.0554 25.6066C22.9998 26.9801 21.3976 28.9324 20.4515 31.2165C19.5054 33.5005 19.2579 36.0139 19.7402 38.4386C20.2225 40.8634 21.413 43.0907 23.1612 44.8388C24.9093 46.587 27.1366 47.7775 29.5614 48.2598C31.9861 48.7421 34.4995 48.4946 36.7835 47.5485C39.0676 46.6024 41.0199 45.0002 42.3934 42.9446C43.7669 40.889 44.5 38.4723 44.5 36C44.4947 32.6864 43.1761 29.5101 40.833 27.167C38.4899 24.8239 35.3136 23.5053 32 23.5ZM32 45.5C30.1211 45.5 28.2844 44.9428 26.7221 43.899C25.1598 42.8551 23.9422 41.3714 23.2231 39.6355C22.5041 37.8996 22.316 35.9895 22.6825 34.1466C23.0491 32.3038 23.9539 30.6111 25.2825 29.2825C26.6111 27.9539 28.3038 27.0491 30.1466 26.6825C31.9895 26.316 33.8996 26.5041 35.6355 27.2231C37.3714 27.9422 38.8551 29.1598 39.899 30.7221C40.9428 32.2843 41.5 34.1211 41.5 36C41.4974 38.5187 40.4956 40.9336 38.7146 42.7146C36.9336 44.4956 34.5187 45.4974 32 45.5Z" fill="black"/>
<path d="M32.0001 28.0801C29.9004 28.0827 27.8874 28.918 26.4027 30.4027C24.918 31.8874 24.0827 33.9004 24.0801 36.0001C24.0801 36.3979 24.2381 36.7794 24.5194 37.0607C24.8007 37.342 25.1823 37.5001 25.5801 37.5001C25.9779 37.5001 26.3594 37.342 26.6407 37.0607C26.922 36.7794 27.0801 36.3979 27.0801 36.0001C27.0827 34.696 27.6019 33.4461 28.524 32.524C29.4461 31.6019 30.696 31.0827 32.0001 31.0801C32.3979 31.0801 32.7794 30.922 33.0607 30.6407C33.342 30.3594 33.5001 29.9779 33.5001 29.5801C33.5001 29.1823 33.342 28.8007 33.0607 28.5194C32.7794 28.2381 32.3979 28.0801 32.0001 28.0801V28.0801Z" fill="black"/>
</svg>
